<svg id="icon" xmlns="http://www.w3.org/2000/svg" xmlns:xlink="http://www.w3.org/1999/xlink" width="1024" height="1024" viewBox="0 0 1024 1024">
  <defs>
    <style>
      .cls-1, .cls-2 {
        fill-rule: evenodd;
      }

      .cls-1 {
        fill: url(#linear-gradient);
      }

      .cls-2 {
        fill: #fff;
      }
    </style>
    <linearGradient id="linear-gradient" x1="512" y1="1024" x2="512" gradientUnits="userSpaceOnUse">
      <stop offset="0" stop-color="#c75509"/>
      <stop offset="1" stop-color="#f18617"/>
    </linearGradient>
  </defs>
  <path id="base" class="cls-1" d="M357.011,0H666.99c102.8,0,154.2,0,209.531,17.5A217.508,217.508,0,0,1,1006.51,147.482C1024,202.812,1024,254.21,1024,357.01V666.99c0,102.8,0,154.2-17.49,209.53A217.487,217.487,0,0,1,876.521,1006.5C821.188,1024,769.79,1024,666.99,1024H357.011c-102.8,0-154.2,0-209.529-17.5A217.465,217.465,0,0,1,17.5,876.52C0,821.187,0,769.79,0,666.99V357.01c0-102.8,0-154.2,17.495-209.528A217.486,217.486,0,0,1,147.482,17.5C202.812,0,254.211,0,357.011,0h0"/>
  <path id="SF_Logo" data-name="SF Logo" class="cls-2" d="M512,861.988c-192.983,0-349.991-157.006-349.991-349.983S319.019,162.011,512,162.011,861.988,319.018,861.988,512.005,704.98,861.988,512,861.988Zm0-661.8c-171.932,0-311.81,139.883-311.81,311.814S340.07,823.8,512,823.8s311.805-139.872,311.805-311.8S683.929,200.191,512,200.191Zm0,36.443C359.921,236.634,236.64,359.914,236.64,512c0,108.615,62.914,202.518,154.265,247.325a165.266,165.266,0,1,1,251.547-4.8C728.725,708.028,787.365,616.868,787.365,512,787.365,359.914,664.085,236.634,512,236.634Z"/>
</svg>
