<?xml version="1.0" encoding="utf-8"?>
<!-- Generator: Adobe Illustrator 19.2.1, SVG Export Plug-In . SVG Version: 6.00 Build 0)  -->
<svg version="1.1" id="Ebene_1" xmlns="http://www.w3.org/2000/svg" xmlns:xlink="http://www.w3.org/1999/xlink" x="0px" y="0px"
	 viewBox="0 0 400 221.2" enable-background="new 0 0 400 221.2" xml:space="preserve">
<g>
	<g>
		<path fill="#F08513" d="M363.9,60.9c0-5.6-4.5-10.1-10-10.1c-5.5,0-10,4.5-10,10.1v7.6h20.1V60.9z"/>
		<path fill="#F08513" d="M338.8,98.8H369V73.5h-30.1V98.8z M354.2,80.6c3,0,5.4,2.4,5.4,5.4c0,2.1-1.2,3.9-2.9,4.8
			c0.5-0.6,0.7-1.3,0.7-2.1c0-1.8-1.5-3.3-3.3-3.3c-1.8,0-3.3,1.5-3.3,3.3c0,0.8,0.3,1.6,0.8,2.2c-1.8-0.9-3-2.7-3-4.9
			C348.8,83,351.2,80.6,354.2,80.6z"/>
		<path fill="#F08513" d="M400,76.9c0-26-21.1-47.1-47.2-47.1c-12.5,0-23.8,4.8-32.2,12.7C306.1,17.2,278.6,0,247.4,0
			c-30,0-57.9,16.5-72.9,43l-8.6,15.3l-17.4-3.1c-4.1-0.7-7.2-1-9.9-1c-23.9,0-45.4,15.3-53.4,38.1L79,109.8l-18.9-1.2
			c-1.1-0.1-2.3-0.2-3.7-0.4l-0.2,0l-0.2,0C25.1,108.6,0,134,0,164.7c0,31.2,25.5,56.5,56.9,56.5h272.2c31.4,0,56.9-25.3,56.9-56.5
			c0-16.7-7.6-32.1-20-42.6C385.7,116.3,400,98.3,400,76.9z M381.1,164.7c0,28.5-23.3,51.6-52,51.6H56.9c-28.7,0-52-23.2-52-51.6
			c0-28,22.9-51.1,51-51.6c1.5,0.2,2.8,0.3,3.9,0.4l22.5,1.5l7.4-21.1c7.3-20.8,26.9-34.8,48.8-34.8c2.5,0,5.3,0.3,9.1,1l20.8,3.7
			l10.3-18.3c14.1-25,40.5-40.5,68.7-40.5c29.9,0,56.1,16.7,69.6,41.3c-7.1,8.2-11.5,19-11.5,30.7c0,26,21.1,47.1,47.2,47.1
			c2.4,0,4.8-0.2,7.1-0.5C373,132.9,381.1,148.1,381.1,164.7z M374,98.8c0,2.8-2.3,5-5,5h-30.1c-2.8,0-5-2.3-5-5V73.5
			c0-2.8,2.2-5,5-5v-7.6c0-8.4,6.7-15.1,15.1-15.1c8.3,0,15.1,6.8,15.1,15.1v7.6c2.8,0,5,2.3,5,5V98.8z"/>
	</g>
	<g>
		<path fill="#EF850E" d="M109.5,173.4c-4.9,0-8.8-1.1-12-4.2l2.8-2.8c2.3,2.4,5.4,3.4,9.1,3.4c4.8,0,7.8-1.7,7.8-5.2
			c0-2.5-1.5-4-4.9-4.3l-4.8-0.4c-5.7-0.5-8.7-3-8.7-7.8c0-5.3,4.5-8.5,10.7-8.5c4.1,0,7.9,1,10.5,3.1l-2.8,2.8
			c-2.1-1.6-4.7-2.3-7.8-2.3c-4.3,0-6.5,1.8-6.5,4.8c0,2.5,1.4,4,5.1,4.3l4.7,0.4c5.1,0.5,8.6,2.4,8.6,7.9
			C121.4,170.2,116.6,173.4,109.5,173.4z"/>
		<path fill="#EF850E" d="M163.9,173.1v-18c0-5.2-2.8-7.8-7.2-7.8c-4.3,0-7.3,2.7-7.3,7.3v18.4h-4.3v-18c0-5.2-2.8-7.8-7.2-7.8
			c-4.4,0-7.3,2.7-7.3,7.8v18h-4.3v-29.2h4.3v3.2c2.1-2.4,5-3.6,8.2-3.6c4,0,7.2,1.7,8.9,4.9c2.2-3.2,5.5-4.9,9.6-4.9
			c3.1,0,5.7,1,7.5,2.7c2.1,2,3.1,4.7,3.1,8.1v18.7H163.9z"/>
		<path fill="#EF850E" d="M191.7,173.1v-2.8c-2.4,2.4-4.5,3.1-8.4,3.1c-4,0-6.4-0.8-8.2-2.7c-1.4-1.4-2.2-3.6-2.2-5.9
			c0-5.1,3.6-8.4,10.1-8.4h8.8v-2.8c0-4.3-2.1-6.4-7.5-6.4c-3.7,0-5.6,0.9-7.3,3.3l-2.9-2.7c2.6-3.4,5.6-4.3,10.3-4.3
			c7.8,0,11.7,3.4,11.7,9.7v19.8H191.7z M191.7,159.6h-8.2c-4.4,0-6.5,1.8-6.5,5.2s2.1,5,6.7,5c2.5,0,4.7-0.2,6.5-2
			c1-0.9,1.5-2.6,1.5-5V159.6z"/>
		<path fill="#EF850E" d="M219.4,149.5c-1.6-1.6-2.8-2.1-5-2.1c-4.3,0-7,3.4-7,7.8v17.9h-4.3v-29.2h4.3v3.6c1.6-2.4,4.8-3.9,8.2-3.9
			c2.8,0,4.9,0.7,7,2.7L219.4,149.5z"/>
		<path fill="#EF850E" d="M234.9,173.1c-5,0-7.5-3.5-7.5-7.8v-17.9h-3.7v-3.3h3.7v-9.1h4.3v9.1h6.2v3.3h-6.2v17.8
			c0,2.7,1.2,4.3,4,4.3h2.2v3.7H234.9z"/>
		<path fill="#EF850E" d="M256.5,130.7v3.7h-2.3c-2.7,0-3.9,1.6-3.9,4.3v5.4h6.2v3.3h-6.2v25.7H246v-25.7h-3.7v-3.3h3.7v-5.5
			c0-4.3,2.4-7.8,7.4-7.8H256.5z"/>
		<path fill="#EF850E" d="M277.4,149.5c-1.6-1.6-2.8-2.1-5-2.1c-4.3,0-7,3.4-7,7.8v17.9h-4.3v-29.2h4.3v3.6c1.6-2.4,4.8-3.9,8.2-3.9
			c2.8,0,4.9,0.7,7,2.7L277.4,149.5z"/>
		<path fill="#EF850E" d="M300.8,170.1c-2,2-4.8,3.3-8.3,3.3c-3.6,0-6.3-1.3-8.3-3.3c-3-3-3.6-7.1-3.6-11.6c0-4.5,0.6-8.6,3.6-11.6
			c2-2,4.8-3.3,8.3-3.3c3.6,0,6.3,1.3,8.3,3.3c3,3,3.6,7.1,3.6,11.6C304.3,163,303.7,167.1,300.8,170.1z M297.7,149.5
			c-1.4-1.4-3.3-2.1-5.3-2.1c-2.1,0-3.9,0.8-5.3,2.1c-2.1,2.1-2.4,5.8-2.4,9c0,3.3,0.2,6.9,2.4,9c1.4,1.4,3.2,2.1,5.3,2.1
			c2.1,0,4-0.8,5.3-2.1c2.1-2.1,2.3-5.8,2.3-9C300.1,155.2,299.9,151.6,297.7,149.5z"/>
		<path fill="#EF850E" d="M319.5,186.5c-4.4,0-6.8-1.1-9.9-3.9l2.8-2.7c2.1,1.9,3.6,2.9,7,2.9c5.6,0,8-4,8-9v-4.6
			c-2.4,3-5,3.8-8.2,3.8c-3,0-5.5-1.1-7-2.6c-2.9-2.9-3.6-7.4-3.6-12.2c0-4.7,0.7-9.3,3.6-12.2c1.5-1.5,4.1-2.5,7.1-2.5
			c3.2,0,5.8,0.7,8.2,3.8v-3.4h4.2V174C331.7,181.2,327.2,186.5,319.5,186.5z M320.2,147.3c-6.3,0-7.3,5.5-7.3,10.9
			c0,5.5,0.9,10.9,7.3,10.9c6.3,0,7.2-5.5,7.2-10.9C327.4,152.8,326.5,147.3,320.2,147.3z"/>
	</g>
	<g>
		<path fill="#EF850E" d="M214.6,75.1c-15.4,0-27.9,12.5-27.9,27.9c0,15.4,12.5,27.9,27.9,27.9c15.4,0,27.9-12.5,27.9-27.9
			C242.5,87.6,230,75.1,214.6,75.1z M214.6,128.1c-13.9,0-25.1-11.2-25.1-25.1c0-13.9,11.2-25.1,25.1-25.1
			c13.9,0,25.1,11.2,25.1,25.1C239.7,116.8,228.5,128.1,214.6,128.1z"/>
		<path fill="#EF850E" d="M214.6,80.7c-12.3,0-22.3,10-22.3,22.3c0,8.6,4.8,16,11.9,19.7c-1.9-2.3-3.1-5.3-3.1-8.6
			c0-7.4,6-13.5,13.5-13.5c7.4,0,13.5,6,13.5,13.5c0,3.3-1.2,6.3-3.1,8.6c7.1-3.7,11.9-11.2,11.9-19.7
			C236.9,90.7,226.9,80.7,214.6,80.7z"/>
	</g>
</g>
</svg>
