<svg xmlns="http://www.w3.org/2000/svg" width="37.938" height="34" viewBox="0 0 37.938 34">
  <defs>
    <style>
      .cls-1 {
        fill: #fff;
        fill-rule: evenodd;
      }
    </style>
  </defs>
  <path id="checkmark" class="cls-1" d="M172.059,743.273a2.319,2.319,0,0,0-3.243.386L148.19,771.281l-9.171-10.956a2.317,2.317,0,0,0-3.261-.159,2.277,2.277,0,0,0-.157,3.236l11.009,12.673,0.08,0.061,0.158,0.191,0.306,0.148,0.365,0.186,0.379,0.1,0.553,0.038,0.229-.031,0.667-.211,0.108-.061,0.419-.25,0.212-.286,0.011-.013,22.35-29.448A2.279,2.279,0,0,0,172.059,743.273Z" transform="translate(-135 -742.781)"/>
</svg>
